/* XPM */
static char * close_active_xpm[] = {
"21 20 152 2",
"  	c None",
". 	c #6D7076",
"+ 	c #4D4E51",
"@ 	c #4D4E52",
"# 	c #4C4E52",
"$ 	c #4D4F51",
"% 	c #4B4F51",
"& 	c #4C4F51",
"* 	c #4B4F52",
"= 	c #4C4E51",
"- 	c #4C4D50",
"; 	c #4C4E50",
"> 	c #4C4F52",
", 	c #4E5153",
"' 	c #505255",
") 	c #515356",
"! 	c #4E5053",
"~ 	c #4B4D50",
"{ 	c #4C4D51",
"] 	c #4B4D51",
"^ 	c #484A4C",
"/ 	c #36383A",
"( 	c #272829",
"_ 	c #222223",
": 	c #272729",
"< 	c #37383A",
"[ 	c #484A4D",
"} 	c #4B4E50",
"| 	c #424446",
"1 	c #28282A",
"2 	c #1E1F1F",
"3 	c #252626",
"4 	c #292A2B",
"5 	c #252627",
"6 	c #1F1F21",
"7 	c #28292A",
"8 	c #424346",
"9 	c #4B4C50",
"0 	c #4B4D4F",
"a 	c #4B4C4F",
"b 	c #47494C",
"c 	c #28292B",
"d 	c #212223",
"e 	c #48494A",
"f 	c #6B6C6D",
"g 	c #747577",
"h 	c #6C6D6F",
"i 	c #4A4B4C",
"j 	c #232324",
"k 	c #4A4D4F",
"l 	c #4A4C4F",
"m 	c #4A4C4E",
"n 	c #37393B",
"o 	c #1F2021",
"p 	c #434445",
"q 	c #6B6D6E",
"r 	c #757779",
"s 	c #75777A",
"t 	c #76787A",
"u 	c #434446",
"v 	c #202022",
"w 	c #494C4E",
"x 	c #494B4E",
"y 	c #2A2B2D",
"z 	c #58595B",
"A 	c #6B6C6F",
"B 	c #626467",
"C 	c #606265",
"D 	c #222324",
"E 	c #2A2C2D",
"F 	c #4D5053",
"G 	c #4A4B4E",
"H 	c #505254",
"I 	c #27292A",
"J 	c #535456",
"K 	c #626366",
"L 	c #5C5C60",
"M 	c #5C5E61",
"N 	c #5C5D60",
"O 	c #4F5154",
"P 	c #494B4D",
"Q 	c #494A4D",
"R 	c #525356",
"S 	c #2E2F30",
"T 	c #444547",
"U 	c #595A5D",
"V 	c #58595C",
"W 	c #56585A",
"X 	c #585A5B",
"Y 	c #595A5C",
"Z 	c #434546",
"` 	c #474A4B",
" .	c #515255",
"..	c #414344",
"+.	c #212224",
"@.	c #2D2E2F",
"#.	c #47494A",
"$.	c #525456",
"%.	c #535557",
"&.	c #525455",
"*.	c #47484A",
"=.	c #2C2D2E",
"-.	c #414345",
";.	c #484B4D",
">.	c #545658",
",.	c #363738",
"'.	c #2A2B2C",
").	c #3B3C3E",
"!.	c #404245",
"~.	c #3B3D3E",
"{.	c #2A2A2C",
"].	c #1E1F20",
"^.	c #353738",
"/.	c #484B4C",
"(.	c #47494B",
"_.	c #515355",
":.	c #545556",
"<.	c #393A3B",
"[.	c #232526",
"}.	c #1E2021",
"|.	c #242426",
"1.	c #383A3B",
"2.	c #525556",
"3.	c #48494C",
"4.	c #474A4D",
"5.	c #474A4C",
"6.	c #46484B",
"7.	c #5C5E5F",
"8.	c #4B4D4E",
"9.	c #383A3C",
"0.	c #343537",
"a.	c #393A3C",
"b.	c #454749",
"c.	c #5B5D60",
"d.	c #6A6C6E",
"e.	c #6F7072",
"f.	c #6A6C6D",
"g.	c #5C5E60",
"h.	c #4A4C50",
"i.	c #46494B",
"j.	c #47484B",
"k.	c #46484A",
"l.	c #434648",
"m.	c #414446",
"n.	c #444548",
"o.	c #46474A",
"p.	c #46494A",
"q.	c #45474A",
"r.	c #45484A",
"s.	c #464749",
"t.	c #464849",
"u.	c #454849",
". . . . . . . . . . . . . . . . . . . . . ",
"+ @ + # $ + # % & @ + + + + & + # * & @ @ ",
"= = = + = = = = = = - = = = = = = & = & = ",
"= ; = = = = = > , ' ) ' ! = = = = = = ~ { ",
"] ; ] - - ~ $ ^ / ( _ : < [ @ - ~ ; } ~ } ",
"- ~ ~ ~ ~ = | 1 2 3 4 5 6 7 8 = ~ ~ ~ } ~ ",
"9 0 0 a ] b c d e f g h i j c b - ~ k 0 a ",
"l m l l > n o p q r s t h u v n $ l l l l ",
"w x l l ! y j z A B C B A z D E F w m x m ",
"w m x G H I D J K L M N K J D I O x m x x ",
"w m P Q R S o T U V W X Y Z o S ) [ m x x ",
"P P P `  ...+.@.#.$.%.&.*.=.d -.' [ P P x ",
";.P ;.^ l >.,.o '.).!.~.{.].^.>.l ^ Q /.Q ",
"^ ^ ^ ^ (._.:.<.[.}.].6 |.1.2._.(.^ 3.4.[ ",
"^ b 5.` b 6.%.7.8.9.0.a.0 7.$.6.3.^ ` ^ 5.",
"(.` 3.(.(.(.b.m c.d.e.f.g.h.b.(.(.(.(.b (.",
"i.(.j.6.(.j.(.k.l.| m.| n.o.i.(.j.(.i.i.(.",
"k.k.i.i.i.p.k.k.k.*.*.k.k.i.i.i.p.k.k.k.*.",
"q.k.k.r.o.k.r.k.s.t.q.q.k.k.r.o.k.r.k.s.k.",
"q.t.b.s.u.s.r.q.b.b.q.q.t.b.s.u.s.r.q.b.b."};
