/* XPM */
static char * close_inactive_xpm[] = {
"21 20 122 2",
"  	c None",
". 	c #6D7076",
"+ 	c #4D4E51",
"@ 	c #4D4E52",
"# 	c #4C4E52",
"$ 	c #4D4F51",
"% 	c #4B4F51",
"& 	c #4C4F51",
"* 	c #4B4F52",
"= 	c #4C4E51",
"- 	c #4C4D51",
"; 	c #4C4E50",
"> 	c #4D4F52",
", 	c #4E5053",
"' 	c #4F5054",
") 	c #4F5153",
"! 	c #4E5052",
"~ 	c #4B4D50",
"{ 	c #4B4D51",
"] 	c #4C4D50",
"^ 	c #494C4E",
"/ 	c #3E4042",
"( 	c #343638",
"_ 	c #313235",
": 	c #353638",
"< 	c #3F4142",
"[ 	c #494B4E",
"} 	c #4B4E50",
"| 	c #46474A",
"1 	c #353739",
"2 	c #2F3132",
"3 	c #323435",
"4 	c #343537",
"5 	c #333436",
"6 	c #303132",
"7 	c #363739",
"8 	c #45474A",
"9 	c #4B4C50",
"0 	c #4B4D4F",
"a 	c #4B4C4F",
"b 	c #494B4D",
"c 	c #303133",
"d 	c #444648",
"e 	c #57585B",
"f 	c #5C5D60",
"g 	c #57595C",
"h 	c #464749",
"i 	c #313334",
"j 	c #484B4E",
"k 	c #4A4D4F",
"l 	c #4A4C4F",
"m 	c #4A4C4E",
"n 	c #3F4043",
"o 	c #424345",
"p 	c #56575A",
"q 	c #5B5D5F",
"r 	c #5A5C5F",
"s 	c #424446",
"t 	c #36383A",
"u 	c #303233",
"v 	c #4D4E50",
"w 	c #56585A",
"x 	c #515355",
"y 	c #4F5254",
"z 	c #505255",
"A 	c #313234",
"B 	c #37383A",
"C 	c #4A4B4E",
"D 	c #343738",
"E 	c #515356",
"F 	c #4E5153",
"G 	c #525356",
"H 	c #313133",
"I 	c #353738",
"J 	c #383A3B",
"K 	c #2F3032",
"L 	c #424447",
"M 	c #4D5052",
"N 	c #4E4F52",
"O 	c #424346",
"P 	c #494A4D",
"Q 	c #484A4C",
"R 	c #434447",
"S 	c #303234",
"T 	c #454749",
"U 	c #444547",
"V 	c #484A4D",
"W 	c #484B4D",
"X 	c #4F5053",
"Y 	c #3D3E40",
"Z 	c #2E3032",
"` 	c #3F4143",
" .	c #2E3031",
"..	c #484B4C",
"+.	c #47494B",
"@.	c #2E2F31",
"#.	c #3E4142",
"$.	c #4E5152",
"%.	c #48494C",
"&.	c #474A4D",
"*.	c #47494C",
"=.	c #474A4C",
"-.	c #474A4B",
";.	c #47484B",
">.	c #535658",
",.	c #494C4D",
"'.	c #3B3D3F",
").	c #46484A",
"!.	c #5D5E60",
"~.	c #5F6062",
"{.	c #5C5E60",
"].	c #545658",
"^.	c #46494B",
"/.	c #46484B",
"(.	c #444748",
"_.	c #434548",
":.	c #434648",
"<.	c #46494A",
"[.	c #47484A",
"}.	c #45484A",
"|.	c #464849",
"1.	c #454849",
". . . . . . . . . . . . . . . . . . . . . ",
"+ @ + # $ + # % & @ + + + + & + # * & @ @ ",
"= = = + = = = = = = - = = = = = = & = & = ",
"= ; = = = = = = > , ' ) ! = = = = = = ~ - ",
"{ ; { ] ] ~ & ^ / ( _ : < [ + ] ~ ; } ~ } ",
"] ~ ~ ~ ~ = | 1 2 3 4 5 6 7 8 = ~ ~ ~ } ~ ",
"9 0 0 a ~ b 7 c d e f g h i 7 j ~ ~ k 0 a ",
"l m l l ; n c o p q r q e s c n = l l l l ",
"^ [ l l $ t u v w x y z p + A B & ^ m [ m ",
"^ m [ C $ D u m E ! F , G C H I & ^ m [ [ ",
"^ m b b ! J K L M > & M N O K J ! P m [ [ ",
"b b b Q $ R S t T ] $ ; T 1 c U $ V b b [ ",
"W b W Q b X Y Z : n s ` I  .Y ) b V P ..P ",
"Q Q Q Q +.! ) / i  .@.@.i #.$.$ +.Q %.&.V ",
"Q *.=.-.*.;.) >.,./ './ [ >.$.;.%.Q -.Q =.",
"+.-.%.+.+.+.).b >.!.~.{.].b ).+.+.+.+.*.+.",
"^.+.;./.+.;.+.).(.d _.:.T )./.+.;.+.^.^.+.",
").).^.^.^.<.).).).[.[.).).^.^.^.<.).).).[.",
"8 ).).}.| ).}.).h |.8 8 ).).}.| ).}.).h ).",
"8 |.T h 1.h }.8 T T 8 8 |.T h 1.h }.8 T T "};
