/* XPM */
static char * close_prelight_xpm[] = {
"21 20 164 2",
"  	c None",
". 	c #6D7076",
"+ 	c #4D4E51",
"@ 	c #4D4E52",
"# 	c #4C4E52",
"$ 	c #4D4F51",
"% 	c #4B4F51",
"& 	c #4C4F51",
"* 	c #4B4F52",
"= 	c #4C4E51",
"- 	c #4C4D51",
"; 	c #4C4E50",
"> 	c #4D4F52",
", 	c #4E5154",
"' 	c #505256",
") 	c #515356",
"! 	c #4F5254",
"~ 	c #4B4D50",
"{ 	c #4B4D51",
"] 	c #4C4D50",
"^ 	c #47494B",
"/ 	c #333537",
"( 	c #242526",
"_ 	c #202122",
": 	c #252527",
"< 	c #343538",
"[ 	c #46484C",
"} 	c #4E4F52",
"| 	c #4B4E50",
"1 	c #404345",
"2 	c #222424",
"3 	c #121314",
"4 	c #171819",
"5 	c #1D1D1E",
"6 	c #212325",
"7 	c #414245",
"8 	c #4B4C50",
"9 	c #4B4D4F",
"0 	c #4B4C4F",
"a 	c #46484A",
"b 	c #222425",
"c 	c #353536",
"d 	c #4D4D4D",
"e 	c #2C2D2D",
"f 	c #0E0F10",
"g 	c #2B2C2D",
"h 	c #4C4C4D",
"i 	c #353636",
"j 	c #222426",
"k 	c #46484B",
"l 	c #4A4D4F",
"m 	c #4A4C4F",
"n 	c #4A4C4E",
"o 	c #4D5052",
"p 	c #333536",
"q 	c #4B4C4C",
"r 	c #B9BAB9",
"s 	c #8E8E8F",
"t 	c #404142",
"u 	c #8C8D8D",
"v 	c #BBBBBB",
"w 	c #4E4F4F",
"x 	c #111314",
"y 	c #343537",
"z 	c #4E5052",
"A 	c #494C4E",
"B 	c #494B4E",
"C 	c #4F5153",
"D 	c #252627",
"E 	c #161718",
"F 	c #292A2B",
"G 	c #888989",
"H 	c #C7C8C8",
"I 	c #CACACB",
"J 	c #C9C9C8",
"K 	c #4E5153",
"L 	c #4A4B4E",
"M 	c #505254",
"N 	c #212223",
"O 	c #1B1C1D",
"P 	c #3D3E3F",
"Q 	c #C5C6C6",
"R 	c #FFFFFF",
"S 	c #CCCCCC",
"T 	c #454546",
"U 	c #0D0D0F",
"V 	c #1C1C1D",
"W 	c #222323",
"X 	c #494B4D",
"Y 	c #494A4D",
"Z 	c #535557",
"` 	c #272829",
" .	c #161617",
"..	c #2C2C2D",
"+.	c #8C8B8D",
"@.	c #C5C5C6",
"#.	c #C4C5C5",
"$.	c #C8C9C9",
"%.	c #919192",
"&.	c #2C2C2E",
"*.	c #272929",
"=.	c #484A4D",
"-.	c #474A4B",
";.	c #3C3D3F",
">.	c #131314",
",.	c #494849",
"'.	c #B4B4B5",
").	c #8A8A8B",
"!.	c #3E3F3F",
"~.	c #49494A",
"{.	c #484B4D",
"].	c #484A4C",
"^.	c #525457",
"/.	c #2B2B2D",
"(.	c #313132",
"_.	c #464747",
":.	c #0E0F0F",
"<.	c #292B2B",
"[.	c #303132",
"}.	c #2A2B2C",
"|.	c #535456",
"1.	c #484B4C",
"2.	c #505253",
"3.	c #2D2E2F",
"4.	c #131415",
"5.	c #141516",
"6.	c #191A1A",
"7.	c #141515",
"8.	c #121415",
"9.	c #2C2E2E",
"0.	c #4F5253",
"a.	c #515355",
"b.	c #48494C",
"c.	c #474A4D",
"d.	c #47494C",
"e.	c #474A4C",
"f.	c #545657",
"g.	c #5A5C5D",
"h.	c #444546",
"i.	c #2F3031",
"j.	c #444547",
"k.	c #595C5D",
"l.	c #525557",
"m.	c #454649",
"n.	c #5C5F61",
"o.	c #6C6D6F",
"p.	c #707174",
"q.	c #6B6E6F",
"r.	c #444649",
"s.	c #46494B",
"t.	c #47484B",
"u.	c #434648",
"v.	c #424446",
"w.	c #414445",
"x.	c #444548",
"y.	c #46474A",
"z.	c #46494A",
"A.	c #47484A",
"B.	c #45474A",
"C.	c #45484A",
"D.	c #464749",
"E.	c #464849",
"F.	c #454749",
"G.	c #454849",
". . . . . . . . . . . . . . . . . . . . . ",
"+ @ + # $ + # % & @ + + + + & + # * & @ @ ",
"= = = + = = = = = = - - = = = = = & = & = ",
"= ; = = = = = > , ' ) ) ! > = = = = = ~ - ",
"{ ; { ] ] ~ > ^ / ( _ : < [ } ] ~ ; | ~ | ",
"] ~ ~ ~ ~ > 1 2 3 4 5 4 3 6 7 > ~ ~ ~ | ~ ",
"8 9 9 0 { a b c d e f g h i j k ; ~ l 9 0 ",
"m n m m o p 3 q r s t u v w x y z m m m m ",
"A B m m C D E F G H I J u g E D K A n B n ",
"A n B L M N O f P Q R S T U V W ! B n B B ",
"A n X Y Z `  ...+.@.#.$.%.&. .*.Z =.n B B ",
"X X X -.) ;.>.,.'.).!.G '.~.>.;.) =.X X B ",
"{.X {.].m ^./.(._.F :.<._.[.}.|.m ].Y 1.Y ",
"].].].].^ ) 2.3.4.5.6.7.8.9.0.a.^ ].b.c.=.",
"].d.e.-.d.k f.g.h.i.}.i.j.k.l.k b.].-.].e.",
"^ -.b.^ ^ ^ m.9 n.o.p.q.n.8 r.^ ^ ^ ^ d.^ ",
"s.^ t.k ^ t.^ a u.v.w.v.x.y.s.^ t.^ s.s.^ ",
"a a s.s.s.z.a a a A.A.a a s.s.s.z.a a a A.",
"B.a a C.y.a C.a D.E.B.B.a a C.y.a C.a D.a ",
"B.E.F.D.G.D.C.B.F.F.B.B.E.F.D.G.D.C.B.F.F."};
