/* XPM */
static char * close_pressed_xpm[] = {
"21 20 144 2",
"  	c None",
". 	c #6C6F75",
"+ 	c #6C6E75",
"@ 	c #4B4D4F",
"# 	c #4B4D50",
"$ 	c #4C4E51",
"% 	c #4D4E52",
"& 	c #4C4F51",
"* 	c #4C4F52",
"= 	c #4D4E51",
"- 	c #4C4E52",
"; 	c #4D4F52",
"> 	c #4C4E50",
", 	c #4E5153",
"' 	c #4F5154",
") 	c #505255",
"! 	c #4E5053",
"~ 	c #4B4E50",
"{ 	c #4C4D51",
"] 	c #4B4D51",
"^ 	c #4C4D50",
"/ 	c #4D4F51",
"( 	c #4B4F51",
"_ 	c #36383A",
": 	c #27282A",
"< 	c #232426",
"[ 	c #28292A",
"} 	c #363839",
"| 	c #484A4D",
"1 	c #202122",
"2 	c #161718",
"3 	c #171819",
"4 	c #1F2122",
"5 	c #4A4D50",
"6 	c #1E1F20",
"7 	c #161617",
"8 	c #181819",
"9 	c #19191A",
"0 	c #171718",
"a 	c #151617",
"b 	c #4B4E51",
"c 	c #4A4D4F",
"d 	c #4A4C4F",
"e 	c #4B4C4F",
"f 	c #333536",
"g 	c #151616",
"h 	c #202021",
"i 	c #BBBBBB",
"j 	c #575758",
"k 	c #141516",
"l 	c #555657",
"m 	c #BBBBBC",
"n 	c #333537",
"o 	c #4A4C4E",
"p 	c #4E5052",
"q 	c #212223",
"r 	c #171818",
"s 	c #1B1C1D",
"t 	c #6E6E6F",
"u 	c #A9AAAA",
"v 	c #838484",
"w 	c #727373",
"x 	c #222223",
"y 	c #4D5053",
"z 	c #494C4E",
"A 	c #494B4E",
"B 	c #4A4B4E",
"C 	c #4F5053",
"D 	c #1C1D1E",
"E 	c #1D1C1D",
"F 	c #8F8F90",
"G 	c #CCCDCD",
"H 	c #949595",
"I 	c #1D1D1E",
"J 	c #494B4D",
"K 	c #515355",
"L 	c #1A1B1B",
"M 	c #5A5B5B",
"N 	c #A5A5A6",
"O 	c #969797",
"P 	c #A6A7A7",
"Q 	c #5B5C5C",
"R 	c #484B4D",
"S 	c #484A4C",
"T 	c #525356",
"U 	c #333436",
"V 	c #151516",
"W 	c #1F2020",
"X 	c #B9BABA",
"Y 	c #69696A",
"Z 	c #68696A",
"` 	c #353537",
" .	c #515356",
"..	c #494A4D",
"+.	c #595B5F",
"@.	c #1A1B1C",
"#.	c #262627",
"$.	c #1C1D1D",
"%.	c #1C1C1D",
"&.	c #262727",
"*.	c #5A5C5F",
"=.	c #484B4C",
"-.	c #48494C",
";.	c #474A4C",
">.	c #47494B",
",.	c #505153",
"'.	c #5A5C5E",
").	c #141415",
"!.	c #161819",
"~.	c #161818",
"{.	c #5A5B5D",
"].	c #4F5153",
"^.	c #474A4D",
"/.	c #47494C",
"(.	c #474A4B",
"_.	c #47484B",
":.	c #515354",
"<.	c #66686A",
"[.	c #3B3D3E",
"}.	c #242526",
"|.	c #3B3C3F",
"1.	c #666869",
"2.	c #4F5253",
"3.	c #46484B",
"4.	c #46484A",
"5.	c #5B5E60",
"6.	c #686A6C",
"7.	c #6C6D6F",
"8.	c #686A6B",
"9.	c #5C5E60",
"0.	c #48494D",
"a.	c #46494B",
"b.	c #47484A",
"c.	c #444749",
"d.	c #444748",
"e.	c #434648",
"f.	c #454749",
"g.	c #47494A",
"h.	c #45474A",
"i.	c #46474A",
"j.	c #45484A",
"k.	c #464749",
"l.	c #464849",
"m.	c #454849",
". . . + + . + . + + . . . . + + + + + + . ",
"@ @ @ # @ @ # @ @ # @ @ @ # # @ # @ @ @ # ",
"$ % $ % & % * $ & % $ $ = - ; & - $ & ; - ",
"$ > $ $ $ $ $ $ , ' ) ' ! $ $ $ $ $ $ ~ { ",
"] > ] { ^ # / ( _ : < [ } - = ^ > > ~ # ~ ",
"^ # # # # # | 1 2 3 3 3 2 4 | ^ # ^ # ~ # ",
"# # @ 5 5 > 6 7 2 8 9 8 0 a 6 b @ # c @ 5 ",
"d d @ e - f g h i j k l m h g n & c d e e ",
"d o d d p q r s t u v u w s 3 x y o o d d ",
"z A B o C D 8 3 E F G H I 3 8 D ! A o A o ",
"J A A J K q 0 L M N O P Q L 0 q K J A A A ",
"R J J S T U V W X Y q Z X W V `  ...J ....",
"R | R S A +.@.7 #.$.0 %.&.7 @.*.A | | =.| ",
"S S -.;.>.,.'.s ).!.3 ~.).s {.].>.-.S ^.| ",
"S /./.(./._.:.<.[.}.W }.|.1.2.3.-.;.(.S ;.",
">.(.-.>.>.>.4.S 5.6.7.8.9.0.4.>.>.>.>./.>.",
"a.>._.3.>.>.>.b.c.d.e.d.f._.3.g.3.g.3.a.a.",
"4.3.3.a.3.4.4.4.4.4.4.3.4.a.4.3.4.4.4.4.b.",
"h.4.4.4.i.4.j.j.i.k.j.4.4.4.j.i.4.j.i.k.j.",
"h.l.f.k.m.k.j.h.j.f.h.l.f.f.k.m.k.j.j.f.f."};
