/* XPM */
static char * hide_prelight_xpm[] = {
"20 20 113 2",
"  	c None",
". 	c #070708",
"+ 	c #6D7076",
"@ 	c #4B4C4F",
"# 	c #4B4C50",
"$ 	c #4B4D50",
"% 	c #4B4D4F",
"& 	c #4A4D50",
"* 	c #4A4D4F",
"= 	c #4C4E51",
"- 	c #4D4E51",
"; 	c #4C4F51",
"> 	c #4C4E50",
", 	c #4D4F52",
"' 	c #4E4F53",
") 	c #4E5053",
"! 	c #4E5052",
"~ 	c #4D4F51",
"{ 	c #4C4D51",
"] 	c #4B4D51",
"^ 	c #4C4D50",
"/ 	c #3C3E3F",
"( 	c #222325",
"_ 	c #181919",
": 	c #18181A",
"< 	c #232425",
"[ 	c #3B3D41",
"} 	c #4B4E50",
"| 	c #4A4C4F",
"1 	c #313234",
"2 	c #171819",
"3 	c #1C1D1E",
"4 	c #1E1F20",
"5 	c #1C1C1E",
"6 	c #4A4C50",
"7 	c #4A4D51",
"8 	c #3B3D3E",
"9 	c #1D1E1F",
"0 	c #3B3D40",
"a 	c #4B4E4F",
"b 	c #4A4C4E",
"c 	c #222324",
"d 	c #161718",
"e 	c #0D0E0F",
"f 	c #0D0F10",
"g 	c #494C4E",
"h 	c #494B4E",
"i 	c #878788",
"j 	c #F7F7F7",
"k 	c #F1F1F1",
"l 	c #878888",
"m 	c #181819",
"n 	c #4A4B4E",
"o 	c #494B4D",
"p 	c #484A4C",
"q 	c #525456",
"r 	c #242526",
"s 	c #1B1C1D",
"t 	c #161617",
"u 	c #0D0D0F",
"v 	c #0E0D0F",
"w 	c #0D0D0E",
"x 	c #1B1B1C",
"y 	c #484A4D",
"z 	c #484B4D",
"A 	c #48494C",
"B 	c #151516",
"C 	c #1D1D1E",
"D 	c #1E1E1F",
"E 	c #151517",
"F 	c #48494B",
"G 	c #494B4C",
"H 	c #494A4D",
"I 	c #56585A",
"J 	c #3E3E40",
"K 	c #141516",
"L 	c #191B1C",
"M 	c #1D1E1E",
"N 	c #1A1B1C",
"O 	c #3D3F3F",
"P 	c #565859",
"Q 	c #474A4D",
"R 	c #47494C",
"S 	c #474A4C",
"T 	c #474A4B",
"U 	c #5B5D5E",
"V 	c #515354",
"W 	c #262728",
"X 	c #161717",
"Y 	c #595C5D",
"Z 	c #47494B",
"` 	c #46484A",
" .	c #66686A",
"..	c #717274",
"+.	c #707274",
"@.	c #66696A",
"#.	c #525357",
"$.	c #46484B",
"%.	c #46494B",
"&.	c #47484B",
"*.	c #444749",
"=.	c #444648",
"-.	c #434648",
";.	c #454649",
">.	c #46474A",
",.	c #46494A",
"'.	c #47484A",
").	c #45474A",
"!.	c #45484A",
"~.	c #464749",
"{.	c #464849",
"].	c #454749",
"^.	c #454849",
". . . . . . . . . . . . . . . . . . . . ",
"+ + + + + + + + + + + + + + + + + + + + ",
"@ # @ $ % # & * $ # @ # @ $ % # & * $ # ",
"= = = - = = ; = ; = = = = - = = ; = ; = ",
"= > = = = = = ; , ' ) ! ~ = = = = = $ { ",
"] > ] ^ ^ $ % / ( _ : < [ @ ^ $ > } $ } ",
"^ $ $ $ $ | 1 2 3 4 4 5 2 1 | $ $ $ } $ ",
"6 % % @ 7 8 2 9 4 4 4 4 9 2 0 a $ * @ @ ",
"| b | | > c 3 d e f f e d 3 c = | | | | ",
"g h | | > 2 2 i j k k j l : m } g b h b ",
"g b h n ! m 2 l j k k j i m _ ! h b h h ",
"o o o p q r s t u v w w t x r q y o h h ",
"z o z p , A B C D D 9 D C E F , y o G H ",
"p p p p p I J K L 9 M N K O P p p A Q y ",
"p R S T R H U V W X X W V Y y A p T p S ",
"Z T A Z Z Z ` q  ...+.@.#.$.Z Z Z Z R Z ",
"%.Z &.$.Z &.Z ` *.=.-.;.>.$.Z &.Z %.%.Z ",
"` ` %.%.%.,.` ` ` '.` ` %.%.%.,.` ` ` '.",
").` ` !.>.` !.` ~.` ).` ` !.>.` !.` ~.` ",
").{.].~.^.~.!.).].].).{.].~.^.~.!.).].]."};
