/* XPM */
static char * iconify_pressed_xpm[] = {
"21 20 130 2",
"  	c None",
". 	c #6C6F75",
"+ 	c #6C6E75",
"@ 	c #4B4D4F",
"# 	c #4B4D50",
"$ 	c #4C4E51",
"% 	c #4D4E52",
"& 	c #4C4F51",
"* 	c #4C4F52",
"= 	c #4D4E51",
"- 	c #4C4E52",
"; 	c #4D4F52",
"> 	c #4C4E50",
", 	c #4E5153",
"' 	c #4F5154",
") 	c #505255",
"! 	c #4E5053",
"~ 	c #4B4E50",
"{ 	c #4C4D51",
"] 	c #4B4D51",
"^ 	c #4C4D50",
"/ 	c #4D4F51",
"( 	c #4B4F51",
"_ 	c #36383A",
": 	c #27282A",
"< 	c #232426",
"[ 	c #28292A",
"} 	c #363839",
"| 	c #484A4D",
"1 	c #202122",
"2 	c #161718",
"3 	c #171819",
"4 	c #1F2122",
"5 	c #4A4D50",
"6 	c #1E1F20",
"7 	c #161617",
"8 	c #18191A",
"9 	c #19191A",
"0 	c #151617",
"a 	c #4B4E51",
"b 	c #4A4D4F",
"c 	c #4A4C4F",
"d 	c #4B4C4F",
"e 	c #333536",
"f 	c #151616",
"g 	c #181819",
"h 	c #333537",
"i 	c #4A4C4E",
"j 	c #4E5052",
"k 	c #212223",
"l 	c #171818",
"m 	c #1A1B1C",
"n 	c #3F4041",
"o 	c #3D3E3F",
"p 	c #222223",
"q 	c #4D5053",
"r 	c #494C4E",
"s 	c #494B4E",
"t 	c #4A4B4E",
"u 	c #4F5053",
"v 	c #1C1D1E",
"w 	c #D9D9D9",
"x 	c #CDCDCE",
"y 	c #CDCECE",
"z 	c #D9D8D9",
"A 	c #494B4D",
"B 	c #515355",
"C 	c #171718",
"D 	c #1B1C1C",
"E 	c #5E5E5F",
"F 	c #595A5B",
"G 	c #595B5A",
"H 	c #484B4D",
"I 	c #484A4C",
"J 	c #525356",
"K 	c #333436",
"L 	c #151516",
"M 	c #181919",
"N 	c #131415",
"O 	c #141415",
"P 	c #141515",
"Q 	c #353537",
"R 	c #515356",
"S 	c #494A4D",
"T 	c #595B5F",
"U 	c #5A5C5F",
"V 	c #484B4C",
"W 	c #48494C",
"X 	c #474A4C",
"Y 	c #47494B",
"Z 	c #505153",
"` 	c #5A5C5E",
" .	c #1B1C1D",
"..	c #161819",
"+.	c #161818",
"@.	c #5A5B5D",
"#.	c #4F5153",
"$.	c #474A4D",
"%.	c #47494C",
"&.	c #474A4B",
"*.	c #47484B",
"=.	c #515354",
"-.	c #66686A",
";.	c #3B3D3E",
">.	c #242526",
",.	c #1F2020",
"'.	c #3B3C3F",
").	c #666869",
"!.	c #4F5253",
"~.	c #46484B",
"{.	c #46484A",
"].	c #5B5E60",
"^.	c #686A6C",
"/.	c #6C6D6F",
"(.	c #686A6B",
"_.	c #5C5E60",
":.	c #48494D",
"<.	c #46494B",
"[.	c #47484A",
"}.	c #444749",
"|.	c #444748",
"1.	c #434648",
"2.	c #454749",
"3.	c #47494A",
"4.	c #45474A",
"5.	c #46474A",
"6.	c #45484A",
"7.	c #464749",
"8.	c #464849",
"9.	c #454849",
". . . + + . + . + + . . . . + + + + + + . ",
"@ @ @ # @ @ # @ @ # @ @ @ # # @ # @ @ @ # ",
"$ % $ % & % * $ & % $ $ = - ; & - $ & ; - ",
"$ > $ $ $ $ $ $ , ' ) ' ! $ $ $ $ $ $ ~ { ",
"] > ] { ^ # / ( _ : < [ } - = ^ > > ~ # ~ ",
"^ # # # # # | 1 2 3 3 3 2 4 | ^ # ^ # ~ # ",
"# # @ 5 5 > 6 7 8 9 8 9 9 0 6 a @ # b @ 5 ",
"c c @ d - e f 9 3 g 3 3 g 9 f h & b c d d ",
"c i c c j k l m n o o o n m 3 p q i i c c ",
"r s t i u v g 1 w x y x z 1 g v ! s i s i ",
"A s s A B k C D E F F G E D C k B A s s s ",
"H A A I J K L M N O O P N M L Q R S A S S ",
"H | H I s T m L M M M g M L m U s | | V | ",
"I I W X Y Z `  .O ..3 +.O  .@.#.Y W I $.| ",
"I %.%.&.%.*.=.-.;.>.,.>.'.).!.~.W X &.I X ",
"Y &.W Y Y Y {.I ].^./.(._.:.{.Y Y Y Y %.Y ",
"<.Y *.~.Y Y Y [.}.|.1.|.2.*.~.3.~.3.~.<.<.",
"{.~.~.<.~.{.{.{.{.{.{.~.{.<.{.~.{.{.{.{.[.",
"4.{.{.{.5.{.6.6.5.7.6.{.{.{.6.5.{.6.5.7.6.",
"4.8.2.7.9.7.6.4.6.2.4.8.2.2.7.9.7.6.6.2.2."};
