/* XPM */
static char * maximize_prelight_xpm[] = {
"21 20 170 2",
"  	c None",
". 	c #6D7076",
"+ 	c #4D4E51",
"@ 	c #4D4E52",
"# 	c #4C4E52",
"$ 	c #4D4F51",
"% 	c #4B4F51",
"& 	c #4C4F51",
"* 	c #4B4F52",
"= 	c #4C4E51",
"- 	c #4C4D51",
"; 	c #4C4E50",
"> 	c #4D4F52",
", 	c #4E5154",
"' 	c #505256",
") 	c #515356",
"! 	c #4F5254",
"~ 	c #4B4D50",
"{ 	c #4B4D51",
"] 	c #4C4D50",
"^ 	c #47494B",
"/ 	c #333536",
"( 	c #242526",
"_ 	c #202122",
": 	c #252527",
"< 	c #343538",
"[ 	c #46484C",
"} 	c #4E4F52",
"| 	c #4B4E50",
"1 	c #404144",
"2 	c #272829",
"3 	c #1D1E1F",
"4 	c #171819",
"5 	c #0F1010",
"6 	c #0D0D0F",
"7 	c #111213",
"8 	c #232527",
"9 	c #404245",
"0 	c #4B4C50",
"a 	c #4B4D4F",
"b 	c #4B4C4F",
"c 	c #46484A",
"d 	c #1A1B1C",
"e 	c #161718",
"f 	c #3C3D3D",
"g 	c #666767",
"h 	c #6A6A6B",
"i 	c #4F4F50",
"j 	c #262728",
"k 	c #242627",
"l 	c #46484B",
"m 	c #4A4D4F",
"n 	c #4A4C4F",
"o 	c #4A4C4E",
"p 	c #4D5052",
"q 	c #151617",
"r 	c #101113",
"s 	c #333434",
"t 	c #9F9F9F",
"u 	c #ECECEB",
"v 	c #BBBBBC",
"w 	c #4C4D4E",
"x 	c #343537",
"y 	c #4E5052",
"z 	c #494C4E",
"A 	c #494B4E",
"B 	c #4F5153",
"C 	c #252627",
"D 	c #3D3E3F",
"E 	c #39393A",
"F 	c #212223",
"G 	c #4D4E4E",
"H 	c #C3C4C4",
"I 	c #E6E6E6",
"J 	c #666667",
"K 	c #0C0C0E",
"L 	c #262628",
"M 	c #4E5153",
"N 	c #4A4B4E",
"O 	c #505254",
"P 	c #222324",
"Q 	c #0D0E0F",
"R 	c #636464",
"S 	c #A5A6A6",
"T 	c #575859",
"U 	c #0C0D0E",
"V 	c #969798",
"W 	c #606162",
"X 	c #0E0E10",
"Y 	c #494B4D",
"Z 	c #494A4D",
"` 	c #535557",
" .	c #282829",
"..	c #646565",
"+.	c #E9EAE9",
"@.	c #CFD0D0",
"#.	c #565757",
"$.	c #202121",
"%.	c #313132",
"&.	c #373738",
"*.	c #171717",
"=.	c #484A4D",
"-.	c #474A4B",
";.	c #3C3D3F",
">.	c #121314",
",.	c #4A4A4B",
"'.	c #B6B6B6",
").	c #E5E5E5",
"!.	c #9D9E9E",
"~.	c #353636",
"{.	c #111112",
"].	c #151516",
"^.	c #1D1D1F",
"/.	c #3B3D3E",
"(.	c #484B4D",
"_.	c #484A4C",
":.	c #525457",
"<.	c #2C2D2F",
"[.	c #242425",
"}.	c #484849",
"|.	c #616263",
"1.	c #5F5F60",
"2.	c #38393A",
"3.	c #131415",
"4.	c #18191A",
"5.	c #2F3031",
"6.	c #525456",
"7.	c #484B4C",
"8.	c #505253",
"9.	c #2F3030",
"0.	c #131314",
"a.	c #0A0B0C",
"b.	c #0B0C0C",
"c.	c #141515",
"d.	c #1E1F20",
"e.	c #313233",
"f.	c #4E5151",
"g.	c #515355",
"h.	c #48494C",
"i.	c #474A4D",
"j.	c #47494C",
"k.	c #474A4C",
"l.	c #545657",
"m.	c #5A5C5D",
"n.	c #444546",
"o.	c #2B2C2C",
"p.	c #434546",
"q.	c #595B5D",
"r.	c #525557",
"s.	c #454649",
"t.	c #5C5F61",
"u.	c #6C6D6F",
"v.	c #707174",
"w.	c #6B6E6F",
"x.	c #444649",
"y.	c #46494B",
"z.	c #47484B",
"A.	c #434648",
"B.	c #424446",
"C.	c #414445",
"D.	c #444548",
"E.	c #46474A",
"F.	c #46494A",
"G.	c #47484A",
"H.	c #45474A",
"I.	c #45484A",
"J.	c #464749",
"K.	c #464849",
"L.	c #454749",
"M.	c #454849",
". . . . . . . . . . . . . . . . . . . . . ",
"+ @ + # $ + # % & @ + + + + & + # * & @ @ ",
"= = = + = = = = = = - - = = = = = & = & = ",
"= ; = = = = = > , ' ) ) ! > = = = = = ~ - ",
"{ ; { ] ] ~ > ^ / ( _ : < [ } ] ~ ; | ~ | ",
"] ~ ~ ~ ~ > 1 2 3 4 5 6 7 8 9 > ~ ~ ~ | ~ ",
"0 a a b { c 2 d e f g h i j k l ; ~ m a b ",
"n o n n p / 3 q r s t u v w 7 x y n n n n ",
"z A n n B C q D E F G H I J K L M z o A o ",
"z o A N O P Q R S T U w V W X P ! A o A A ",
"z o Y Z `  .U ..+.@.#.$.%.&.*.2 ` =.o A A ",
"Y Y Y -.) ;.>.,.'.).!.~.{.].^./.) =.Y Y A ",
"(.Y (._.n :.<.[.}.|.1.2.3.4.5.6.n _.Z 7.Z ",
"_._._._.^ ) 8.9.0.a.b.c.d.e.f.g.^ _.h.i.=.",
"_.j.k.-.j.l l.m.n.5.o.5.p.q.r.l h._.-._.k.",
"^ -.h.^ ^ ^ s.a t.u.v.w.t.0 x.^ ^ ^ ^ j.^ ",
"y.^ z.l ^ z.^ c A.B.C.B.D.E.y.^ z.^ y.y.^ ",
"c c y.y.y.F.c c c G.G.c c y.y.y.F.c c c G.",
"H.c c I.E.c I.c J.K.H.H.c c I.E.c I.c J.c ",
"H.K.L.J.M.J.I.H.L.L.H.H.K.L.J.M.J.I.H.L.L."};
