/* XPM */
static char * title_3_active_xpm[] = {
"10 20 48 1",
" 	c None",
".	c #6C6F75",
"+	c #6C6E75",
"@	c #4B4D4F",
"#	c #4B4D50",
"$	c #4C4E51",
"%	c #4D4E52",
"&	c #4C4F51",
"*	c #4D4F52",
"=	c #4C4E52",
"-	c #4C4E50",
";	c #4C4D51",
">	c #4B4D51",
",	c #4C4D50",
"'	c #4B4E50",
")	c #4A4D4F",
"!	c #4A4D50",
"~	c #4A4C4F",
"{	c #4B4C4F",
"]	c #4A4C50",
"^	c #4A4C4E",
"/	c #494C4E",
"(	c #494B4E",
"_	c #4A4B4E",
":	c #494B4D",
"<	c #484B4D",
"[	c #494A4D",
"}	c #484A4D",
"|	c #484A4C",
"1	c #484B4C",
"2	c #47494C",
"3	c #48494C",
"4	c #474A4D",
"5	c #474A4B",
"6	c #474A4C",
"7	c #47494B",
"8	c #46494B",
"9	c #47484B",
"0	c #46484B",
"a	c #46484A",
"b	c #47484A",
"c	c #45474A",
"d	c #45484A",
"e	c #46474A",
"f	c #464749",
"g	c #464849",
"h	c #454749",
"i	c #454849",
"...++.+++.",
"@@@#@#@@@#",
"$%$%&%&$*=",
"$-$$$$$$-;",
">->,,#-'#'",
",######,'#",
"##)#!@#!@!",
"~~{{]))~{{",
"~^~~^~~^~~",
"/(_^^//^(^",
":((:::((((",
"<::[[}[:[[",
"<}<|}}<[1}",
"||2||||34}",
"|22523|5|6",
"7527777727",
"8790797088",
"a0880aaaab",
"caadeadafd",
"cghfifdchh"};
