/* XPM */
static char * title_4_inactive_xpm[] = {
"12 22 52 1",
" 	c None",
".	c #4D4F52",
"+	c #4C4E51",
"@	c #4D4E52",
"#	c #4D4E51",
"$	c #4C4E52",
"%	c #4C4F51",
"&	c #4C4F52",
"*	c #4C4E50",
"=	c #4B4E51",
"-	c #4B4D50",
";	c #4C4D51",
">	c #4B4D51",
",	c #4C4D50",
"'	c #4B4E50",
")	c #4B4D4F",
"!	c #4A4D50",
"~	c #4A4D4F",
"{	c #4A4C4F",
"]	c #4B4C4F",
"^	c #4A4C50",
"/	c #4A4C4E",
"(	c #494C4E",
"_	c #494B4E",
":	c #4A4B4F",
"<	c #4A4B4E",
"[	c #494B4D",
"}	c #484B4D",
"|	c #494A4D",
"1	c #484A4D",
"2	c #484A4C",
"3	c #484B4C",
"4	c #48494C",
"5	c #474A4C",
"6	c #474A4D",
"7	c #47494C",
"8	c #474A4B",
"9	c #47494B",
"0	c #46494B",
"a	c #47484B",
"b	c #46484B",
"c	c #46494A",
"d	c #47494A",
"e	c #46484A",
"f	c #47484A",
"g	c #45474A",
"h	c #45484A",
"i	c #46474A",
"j	c #464749",
"k	c #464849",
"l	c #454749",
"m	c #454849",
"............",
"+@#$.%@&+%.$",
"++++#++%+%++",
"+**+++++=*-;",
">*>>,,-*''-'",
",-------,-'-",
"--)!-!)--~)!",
"{{)]]^~~){]]",
"{/{{{/{{/{{{",
"(_:/{/((_/_/",
"(/_<<//_(<__",
"[[_[[[[_[___",
"}[[}||1|[[||",
"}1}1211}|131",
"224522224261",
"277887425825",
"984799999979",
"09aab9a99099",
"bcb90dcefbcb",
"ebe0ebeeeeef",
"geeehiehhijh",
"gklljmjhghll"};
